<svg xmlns="http://www.w3.org/2000/svg" viewBox="0 0 776.16 167.36" role="img" aria-label="Breakout Bras">
  <g id="bb-logo">
    <g>
      <g>
        <path fill="#4D5152" d="M529.93,72.03c0,12.91-10.46,23.37-23.37,23.37s-23.37-10.46-23.37-23.37,10.46-23.37,23.37-23.37,23.37,10.46,23.37,23.37ZM524.19,75.73c2.15-11.27-6.2-22.02-17.41-22.28-9.27-.21-16.93,7.48-17.95,16.41-1.18,10.31,5.11,18.98,15.13,20.55,8.71,1.37,18.25-4.28,20.23-14.69Z"/>
        <path fill="#4D5152" d="M572.99,50.43c1.64-.93,3.66-.56,5.4,0l-.28,27.4c-.12,11.43-8.41,17.76-19.22,17.66-10.2-.1-18.21-5.6-18.97-16.7-.64-9.35-.22-19.01-.3-28.59,2-.37,3.31-.35,5.13-.03l.5,29.66c.11,6.67,7.38,10.63,13.27,10.79,6.19.18,13.3-3.85,14.04-10.77,1.05-9.73-.14-18.99.44-29.42Z"/>
        <path fill="#4D5152" d="M599.95,93.47c-1.71,1.04-3.28.75-4.98.26l-.16-39.37c-2.85-.72-5.09-.23-7.79-.36-.18-1.46-.31-2.61.1-3.99,2.84-.15,4.99.31,7.59-.37l.24-16.54c1.73-.19,3.17-.19,4.91,0l.23,16.55c2.63.79,4.97.04,7.68.38,1.63.21,1.65,3.82.37,3.85l-8.24.22.06,39.36Z"/>
      </g>
      <g>
        <path fill="#719B9A" d="M284.52,94.85c-9.29,1.78-17.05-1.4-22.21-8.23-1.4,2.2-.4,4.46-.51,6.63-.07,1.32-4.89,1.34-4.9-.31l-.09-59.59c1.55-.86,3.53-.75,4.85-.13l.28,24.28c5.74-7.11,13.23-9.87,22.18-8.44,10.96,1.75,18.37,11.7,18.6,22.48s-6.74,21.12-18.19,23.31ZM297.8,71.83c0-10.22-8.29-18.51-18.51-18.51s-18.51,8.29-18.51,18.51,8.29,18.51,18.51,18.51,18.51-8.29,18.51-18.51Z"/>
        <path fill="#719B9A" d="M374.07,80.3c1.63-.12,2.83,1.45,4.71,1.85-3.71,8.71-11.51,13.03-20.9,13.27-13.45.33-23.67-9.86-23.4-23.45.23-11.46,7.66-21.84,19.29-23.04,7.28-.75,13.93.45,19.07,5.41,4.35,4.2,7.68,10.41,7.11,17.65l-40.06.05c-.68,8.73,5.21,16.37,13,18.43,8.27,2.19,16.64-1.81,21.17-10.16ZM374.64,67.74c-1.84-9.44-9.39-14.38-17.34-14.35-8.52.03-15.62,5.71-16.8,14.64l34.14-.29Z"/>
        <path fill="#719B9A" d="M433.97,93.3c0,1.2-3.05,1.1-3.52.66-1.97-1.85.48-5.95-1.8-7.05-5.49,6.85-13.22,9.43-21.97,8.05-11.33-1.79-18.83-12.37-18.63-23.44.2-11.14,8.27-21.29,19.62-22.61,8.7-1.01,16,1.61,21.22,8.87,1.58-2.55.35-4.37.88-6.88.27-1.29,4.38-1.44,4.37-.07l-.18,42.48ZM430.16,72.18c0-10.25-8.31-18.56-18.56-18.56s-18.56,8.31-18.56,18.56,8.31,18.56,18.56,18.56,18.56-8.31,18.56-18.56Z"/>
        <path fill="#719B9A" d="M457.26,70.78l24.74,22.89c-2.38.32-5.77,1.24-7.57-.35l-21.86-19.39-.68,19.86c-1.68.41-3.2.42-4.76.03l.19-60.48c1.01-.8,3.37-.84,4.51-.03l.66,34.56,20.06-17.23c2.79-1.09,5.81-.9,8.2-.32l-23.48,20.44Z"/>
        <path fill="#719B9A" d="M317.13,92.69c-.09,2.06-5.13,1.93-5.13.44l.04-42.62c1.16-1,4.68-.86,4.87.08l1.04,5.25c3.85-5.56,9.58-8.95,15.53-6.16.96.45-.68,2.65-1.26,3.42-1.03,1.39-10.95-1.87-13.59,9.85-2.15,9.53-1.04,19.07-1.51,29.74Z"/>
      </g>
      <g>
        <path fill="#719B9A" d="M642.49,95.21c-8.35.73-14.78-2.17-19.66-9.08-1.98,2.82-.22,5.08-1.16,7.77-1.77.15-3.1.3-4.79-.11l.04-60.52c1.51-.72,3.58-.74,4.79-.04l.72,24.08c6.93-8.09,16.23-10.41,25.76-7.33,8.05,2.6,14.1,10.43,14.82,19.96.96,12.66-7.14,24.1-20.53,25.27ZM639.56,90.57c10.17.23,17.66-8.17,18.38-17.08.74-9.04-5.1-17.84-14.43-19.99-10.35-2.39-20.4,5.03-21.66,15.35-1.36,11.18,5.82,21.45,17.7,21.72Z"/>
        <path fill="#719B9A" d="M741.14,93.36c-1.75,1.3-4.06,1.04-4.43-.18-.71-2.33.69-4.3-.99-6.39-5.58,6.97-13.26,9.54-22.05,8.18-11.28-1.74-18.94-12.41-18.73-23.44.22-11.13,8.33-21.28,19.73-22.63,8.68-1.03,15.93,1.76,21.22,8.79,1.38-2.53.17-4.34.81-6.96.28-1.14,4.28-1.23,4.29.26l.15,42.36ZM737.08,72.17c0-10.25-8.31-18.56-18.56-18.56s-18.56,8.31-18.56,18.56,8.31,18.56,18.56,18.56,18.56-8.31,18.56-18.56Z"/>
        <path fill="#719B9A" d="M771.74,92.35c-6.9,5.34-16.3,3.19-21.71-2.59.55-1.53,1.74-2.5,3.22-3.81,3.22,2.97,7.26,5.69,11.7,4.31,3.31-1.03,5.59-3.34,6.11-5.83,2.56-12.26-21.2-9.95-19.15-25.79.57-4.41,3.92-8.78,8.91-9.65,6.09-1.05,11.84.97,14.95,5.52-.8,1.11-1.8,2.18-2.54,2.35-1.64.38-11.38-8.32-15.99.38-4.96,9.37,11.99,11,17.31,19.23,2.89,4.47,1.84,12.27-2.81,15.87Z"/>
        <path fill="#719B9A" d="M677.57,93.47c-.32,1.11-3.53.7-4.68.12l-.22-40.56c-.01-2.56.84-3.06,2.73-3.16,2.4-.13,2.84,1.39,2.54,4.17-.71,6.43,6.05-10.1,16.18-4.14.47,1.09-1.36,3.2-2.12,3.66-.87.53-2.4-.38-3.85-.08-5.88,1.22-9.71,7-9.86,12.97l-.72,27.02Z"/>
      </g>
      <g>
        <path fill="#719B9A" d="M46.9,0c7.49,4.13,14.17,9.13,20.28,15.8,13.3,14.53,24.46,30.03,35.44,46.59-1.25,3.67-.08,7.62-1,11.36-1.12,4.58-1.98,8.51-1.86,13.29.1,3.99-1.78,7.91-1.81,11.94l-.22,24.02-3.79,20.97c-.46,2.53-.14,5.58-2.05,6.55-1.33.68-5.67,1.35-5.88-.31-1.43-11.42,7.33-30.72,8.98-47.25,1.16-11.55,1.98-23.21-1.87-34.24-4.71-13.49-13.93-24.08-23.89-34.01-6.53-6.52-23.6-24.27-32.94-20.02-7.1,3.23-9.5,25.73,6.84,40.17,11.23,9.91,24.23,17.19,38.3,22.5,3.3,1.25,6.88,1.25,9.17,4.98-4.82,2.06-9.51,2.48-14.49,2.96-17.56,1.71-34.23,7.11-48.75,16.97-4.8,3.26-8.84,6.86-11.25,11.98s-.67,9.72,3.55,13.12c16.04,12.94,50.91,26.31,71.48,34.95-3.58,1.98-7.74,1.42-11.89.33-14.34-3.76-28.21-7.84-42.17-12.77-16.17-5.7-46.46-20.79-34.24-41.96,11.55-14.9,37.19-22.75,54.53-29.48-16.75-11.28-34.77-25.53-37.3-45.54-.22-9.6,2.48-18.97,8.12-26.63,2.55-3.47,6.55-4.22,9.73-6.27h9Z"/>
        <path fill="#719B9A" d="M144.17,82.38c18.24-6.46,34.89-14.14,48.88-27.12,9.54-8.85,13.09-21.56,9.7-33.89-1.35-4.93-5.83-6.75-10.83-5.23-13.11,3.98-34.85,27.76-42.94,39.84-24.5,36.56,3.43,78.91-.31,95.9-.47,2.14-4.19.89-5.41.16-1.77-1.08-2.29-3.45-2.39-6.06-.28-6.93-2.54-13.33-3.91-20.05-.45-2.19.9-3.93.89-6l-.19-35.84c-.01-1.99-3.6-22.55-3.51-22.71,3.54-6.14,7.78-11.47,11.95-17.3,9.85-13.77,20.25-26.77,33.39-37.36,5.13-4.13,10.64-5.99,17.45-4.65,12.78,2.5,18.29,20.75,17.68,31.8-1.1,19.76-21.19,35.24-37.16,46.31,15.62,5.75,56.93,18.58,57.39,37.86.47,20.12-30.71,31.73-46.29,36.47-7.39,2.25-40.15,14.03-44.37,9.36l32.74-13.95c13.09-5.58,25.53-11.58,37-19.85,5.58-4.03,7.9-10.08,3.78-16.18-3.62-5.37-8.9-9.52-14.67-12.99-14.75-8.88-31.24-12.91-48.33-14.6-3.57-.35-7.04.17-10.54-3.91Z"/>
        <path fill="#719B9A" d="M110.53,55.11c-.39-2.93-2.22-3.92-4.53-4.59.38-3.22,1.68-23.47,4.32-23.37,6.18.24.61,24.12.22,27.96Z"/>
        <path fill="#719B9A" d="M127.86,43.92c-1.85-1.07-3.18-2.1-5.67-2.32-.61-5.76-.95-7.67.75-12.18,2.64-6.98,5.05,11.58,4.91,14.5Z"/>
        <path fill="#4D5152" d="M99.88,80.21l1.41-8.37,4.47-26.22c6.46,5.12,5.32,30.14,4.65,36.29-1.91,17.68-6.27,47.56,5.01,61.4,1.78,2.18,5.67-1.46,6.44-3.56,7.33-19.93,8.08-40.69,5.14-61.77-.9-6.42-.79-11.95-3.43-18.42l-8.87,10.79c-5.91-8.92-.14-28.37,7.13-31.34,1.38-.56,5.63.26,6.15,1.73,5.56,15.69,9.19,27.06,9.62,43.59.31,11.61.55,22.78-.24,34.48-.21,3.07-1.58,7.47-2.06,10.85-1.45,10.29-6.93,37.32-19.03,37.69-12.37.38-17.39-23.24-17.94-34.28-.57-11.32-.56-22.61-.09-34.03l.36-8.59c.14-3.27.71-6.94,1.27-10.24Z"/>
      </g>
      <g>
        <path fill="#4D5152" d="M256.82,140.85v-1.83l2.34-2.28c5.64-5.37,8.19-8.22,8.22-11.55,0-2.24-1.09-4.31-4.38-4.31-2,0-3.67,1.02-4.69,1.87l-.95-2.11c1.53-1.29,3.7-2.24,6.25-2.24,4.76,0,6.76,3.26,6.76,6.42,0,4.08-2.96,7.37-7.61,11.86l-1.77,1.63v.07h9.92v2.48h-14.1Z"/>
        <path fill="#4D5152" d="M286.85,120.87c-.61-.03-1.39,0-2.24.14-4.69.78-7.17,4.21-7.68,7.85h.1c1.05-1.39,2.89-2.55,5.33-2.55,3.91,0,6.66,2.82,6.66,7.13,0,4.04-2.75,7.78-7.34,7.78s-7.81-3.67-7.81-9.41c0-4.35,1.56-7.78,3.74-9.96,1.83-1.8,4.28-2.92,7.07-3.26.88-.14,1.63-.17,2.17-.17v2.45ZM286,133.61c0-3.16-1.8-5.06-4.55-5.06-1.8,0-3.47,1.12-4.28,2.72-.2.34-.34.78-.34,1.33.07,3.64,1.73,6.32,4.86,6.32,2.58,0,4.32-2.14,4.32-5.3Z"/>
        <path fill="#4D5152" d="M303.46,140.85v-9.72l-7.24-13.18h3.36l3.23,6.32c.88,1.73,1.56,3.13,2.28,4.72h.07c.65-1.5,1.43-2.99,2.31-4.72l3.3-6.32h3.36l-7.68,13.15v9.75h-2.99Z"/>
        <path fill="#4D5152" d="M315.73,133.17c.07,4.04,2.65,5.71,5.64,5.71,2.14,0,3.43-.37,4.55-.85l.51,2.14c-1.05.48-2.85,1.02-5.47,1.02-5.06,0-8.09-3.33-8.09-8.29s2.92-8.87,7.71-8.87c5.37,0,6.8,4.72,6.8,7.75,0,.61-.07,1.09-.1,1.39h-11.55ZM324.5,131.03c.03-1.9-.78-4.86-4.15-4.86-3.02,0-4.35,2.79-4.59,4.86h8.73Z"/>
        <path fill="#4D5152" d="M340.19,140.85l-.24-2.07h-.1c-.92,1.29-2.68,2.45-5.03,2.45-3.33,0-5.03-2.34-5.03-4.72,0-3.98,3.53-6.15,9.89-6.12v-.34c0-1.36-.37-3.81-3.74-3.81-1.53,0-3.13.48-4.28,1.22l-.68-1.97c1.36-.88,3.33-1.46,5.4-1.46,5.03,0,6.25,3.43,6.25,6.73v6.15c0,1.43.07,2.82.27,3.94h-2.72ZM339.75,132.46c-3.26-.07-6.97.51-6.97,3.7,0,1.94,1.29,2.85,2.82,2.85,2.14,0,3.5-1.36,3.98-2.75.1-.31.17-.65.17-.95v-2.85Z"/>
        <path fill="#4D5152" d="M347.46,129.53c0-1.94-.03-3.6-.14-5.13h2.62l.1,3.23h.14c.75-2.21,2.55-3.6,4.55-3.6.34,0,.58.03.85.1v2.82c-.31-.07-.61-.1-1.02-.1-2.11,0-3.6,1.6-4.01,3.84-.07.41-.14.88-.14,1.39v8.77h-2.96v-11.31Z"/>
        <path fill="#4D5152" d="M358.17,137.79c.88.58,2.45,1.19,3.94,1.19,2.17,0,3.19-1.09,3.19-2.45,0-1.43-.85-2.21-3.06-3.02-2.96-1.05-4.35-2.68-4.35-4.65,0-2.65,2.14-4.82,5.67-4.82,1.66,0,3.13.48,4.04,1.02l-.75,2.17c-.65-.41-1.83-.95-3.36-.95-1.77,0-2.75,1.02-2.75,2.24,0,1.36.99,1.97,3.13,2.79,2.85,1.09,4.31,2.51,4.31,4.96,0,2.89-2.24,4.93-6.15,4.93-1.8,0-3.47-.44-4.62-1.12l.75-2.28Z"/>
        <path fill="#4D5152" d="M394.11,132.49c0,6.08-4.21,8.73-8.19,8.73-4.45,0-7.88-3.26-7.88-8.46,0-5.5,3.6-8.73,8.15-8.73s7.92,3.43,7.92,8.46ZM381.07,132.66c0,3.6,2.07,6.32,4.99,6.32s4.99-2.68,4.99-6.39c0-2.79-1.39-6.32-4.93-6.32s-5.06,3.26-5.06,6.39Z"/>
        <path fill="#4D5152" d="M398.19,140.85v-14.17h-2.31v-2.28h2.31v-.78c0-2.31.51-4.42,1.9-5.74,1.12-1.09,2.62-1.53,4.01-1.53,1.05,0,1.97.24,2.55.48l-.41,2.31c-.44-.2-1.05-.37-1.9-.37-2.55,0-3.19,2.24-3.19,4.76v.88h3.98v2.28h-3.98v14.17h-2.96Z"/>
        <path fill="#4D5152" d="M415.11,117.95h12.33v2.48h-9.38v7.61h8.66v2.45h-8.66v10.36h-2.96v-22.9Z"/>
        <path fill="#4D5152" d="M434,119.78c.03,1.02-.71,1.83-1.9,1.83-1.05,0-1.8-.82-1.8-1.83s.78-1.87,1.87-1.87,1.83.82,1.83,1.87ZM430.67,140.85v-16.44h2.99v16.44h-2.99Z"/>
        <path fill="#4D5152" d="M442.22,119.68v4.72h4.28v2.28h-4.28v8.87c0,2.04.58,3.19,2.24,3.19.78,0,1.36-.1,1.73-.2l.14,2.24c-.58.24-1.49.41-2.65.41-1.39,0-2.51-.44-3.23-1.26-.85-.88-1.16-2.34-1.16-4.28v-8.97h-2.55v-2.28h2.55v-3.94l2.92-.78Z"/>
        <path fill="#4D5152" d="M453.47,119.68v4.72h4.28v2.28h-4.28v8.87c0,2.04.58,3.19,2.24,3.19.78,0,1.36-.1,1.73-.2l.14,2.24c-.58.24-1.49.41-2.65.41-1.39,0-2.51-.44-3.23-1.26-.85-.88-1.16-2.34-1.16-4.28v-8.97h-2.55v-2.28h2.55v-3.94l2.92-.78Z"/>
        <path fill="#4D5152" d="M462.58,133.17c.07,4.04,2.65,5.71,5.64,5.71,2.14,0,3.43-.37,4.55-.85l.51,2.14c-1.05.48-2.85,1.02-5.47,1.02-5.06,0-8.09-3.33-8.09-8.29s2.92-8.87,7.71-8.87c5.37,0,6.8,4.72,6.8,7.75,0,.61-.07,1.09-.1,1.39h-11.55ZM471.34,131.03c.03-1.9-.78-4.86-4.15-4.86-3.02,0-4.35,2.79-4.59,4.86h8.73Z"/>
        <path fill="#4D5152" d="M477.93,129.53c0-1.94-.03-3.6-.14-5.13h2.62l.1,3.23h.14c.75-2.21,2.55-3.6,4.55-3.6.34,0,.58.03.85.1v2.82c-.31-.07-.61-.1-1.02-.1-2.11,0-3.6,1.6-4.01,3.84-.07.41-.14.88-.14,1.39v8.77h-2.96v-11.31Z"/>
        <path fill="#4D5152" d="M500.05,133.65l-2.38,7.2h-3.06l7.78-22.9h3.57l7.81,22.9h-3.16l-2.45-7.2h-8.12ZM507.56,131.33l-2.24-6.59c-.51-1.49-.85-2.85-1.19-4.18h-.07c-.34,1.36-.71,2.75-1.16,4.15l-2.24,6.62h6.9Z"/>
        <path fill="#4D5152" d="M516.94,129.77c0-2.11-.07-3.81-.14-5.37h2.68l.14,2.82h.07c1.22-2,3.16-3.19,5.84-3.19,3.98,0,6.97,3.36,6.97,8.36,0,5.91-3.6,8.83-7.47,8.83-2.17,0-4.08-.95-5.06-2.58h-.07v8.94h-2.96v-17.8ZM519.89,134.15c0,.44.07.85.14,1.22.54,2.07,2.34,3.5,4.48,3.5,3.16,0,4.99-2.58,4.99-6.35,0-3.3-1.73-6.12-4.89-6.12-2.04,0-3.94,1.46-4.52,3.7-.1.37-.2.82-.2,1.22v2.82Z"/>
        <path fill="#4D5152" d="M536.27,129.77c0-2.11-.07-3.81-.14-5.37h2.68l.14,2.82h.07c1.22-2,3.16-3.19,5.84-3.19,3.98,0,6.97,3.36,6.97,8.36,0,5.91-3.6,8.83-7.47,8.83-2.17,0-4.08-.95-5.06-2.58h-.07v8.94h-2.96v-17.8ZM539.23,134.15c0,.44.07.85.14,1.22.54,2.07,2.34,3.5,4.48,3.5,3.16,0,4.99-2.58,4.99-6.35,0-3.3-1.73-6.12-4.89-6.12-2.04,0-3.94,1.46-4.52,3.7-.1.37-.2.82-.2,1.22v2.82Z"/>
        <path fill="#4D5152" d="M555.6,129.53c0-1.94-.03-3.6-.14-5.13h2.62l.1,3.23h.14c.75-2.21,2.55-3.6,4.55-3.6.34,0,.58.03.85.1v2.82c-.31-.07-.61-.1-1.02-.1-2.11,0-3.6,1.6-4.01,3.84-.07.41-.14.88-.14,1.39v8.77h-2.96v-11.31Z"/>
        <path fill="#4D5152" d="M581.25,132.49c0,6.08-4.21,8.73-8.19,8.73-4.45,0-7.88-3.26-7.88-8.46,0-5.5,3.6-8.73,8.15-8.73s7.92,3.43,7.92,8.46ZM568.21,132.66c0,3.6,2.07,6.32,4.99,6.32s4.99-2.68,4.99-6.39c0-2.79-1.39-6.32-4.93-6.32s-5.06,3.26-5.06,6.39Z"/>
        <path fill="#4D5152" d="M585.94,124.4l3.23,9.24c.54,1.5.99,2.85,1.33,4.21h.1c.37-1.36.85-2.72,1.39-4.21l3.19-9.24h3.13l-6.46,16.44h-2.85l-6.25-16.44h3.19Z"/>
        <path fill="#4D5152" d="M602.46,133.17c.07,4.04,2.65,5.71,5.64,5.71,2.14,0,3.43-.37,4.55-.85l.51,2.14c-1.05.48-2.85,1.02-5.47,1.02-5.06,0-8.09-3.33-8.09-8.29s2.92-8.87,7.71-8.87c5.37,0,6.8,4.72,6.8,7.75,0,.61-.07,1.09-.1,1.39h-11.55ZM611.22,131.03c.03-1.9-.78-4.86-4.15-4.86-3.02,0-4.35,2.79-4.59,4.86h8.73Z"/>
        <path fill="#4D5152" d="M632.01,116.73v19.88c0,1.46.03,3.13.14,4.25h-2.68l-.14-2.85h-.07c-.92,1.83-2.92,3.23-5.61,3.23-3.98,0-7.03-3.36-7.03-8.36-.03-5.47,3.36-8.83,7.37-8.83,2.51,0,4.21,1.19,4.96,2.51h.07v-9.82h2.99ZM629.02,131.1c0-.37-.03-.88-.14-1.26-.44-1.9-2.07-3.47-4.32-3.47-3.09,0-4.93,2.72-4.93,6.35,0,3.33,1.63,6.08,4.86,6.08,2,0,3.84-1.33,4.38-3.57.1-.41.14-.82.14-1.29v-2.85Z"/>
        <path fill="#4D5152" d="M647.24,117.95v22.9h-2.96v-22.9h2.96Z"/>
        <path fill="#4D5152" d="M652.64,128.85c0-1.7-.03-3.09-.14-4.45h2.65l.17,2.72h.07c.82-1.56,2.72-3.09,5.44-3.09,2.28,0,5.81,1.36,5.81,7v9.82h-2.99v-9.48c0-2.65-.99-4.86-3.81-4.86-1.97,0-3.5,1.39-4.01,3.06-.14.37-.2.88-.2,1.39v9.89h-2.99v-11.99Z"/>
        <path fill="#4D5152" d="M674.96,119.68v4.72h4.28v2.28h-4.28v8.87c0,2.04.58,3.19,2.24,3.19.78,0,1.36-.1,1.73-.2l.14,2.24c-.58.24-1.49.41-2.65.41-1.39,0-2.51-.44-3.23-1.26-.85-.88-1.16-2.34-1.16-4.28v-8.97h-2.55v-2.28h2.55v-3.94l2.92-.78Z"/>
        <path fill="#4D5152" d="M693.9,128.85c0-1.7-.03-3.09-.14-4.45h2.62l.14,2.65h.1c.92-1.56,2.45-3.02,5.16-3.02,2.24,0,3.94,1.36,4.65,3.3h.07c.51-.92,1.16-1.63,1.83-2.14.99-.75,2.07-1.16,3.63-1.16,2.17,0,5.4,1.43,5.4,7.14v9.68h-2.92v-9.31c0-3.16-1.16-5.06-3.57-5.06-1.7,0-3.02,1.26-3.53,2.72-.14.41-.24.95-.24,1.49v10.16h-2.92v-9.85c0-2.62-1.16-4.52-3.43-4.52-1.87,0-3.23,1.5-3.7,2.99-.17.44-.24.95-.24,1.46v9.92h-2.92v-11.99Z"/>
        <path fill="#4D5152" d="M731.35,140.85l-.24-2.07h-.1c-.92,1.29-2.68,2.45-5.03,2.45-3.33,0-5.03-2.34-5.03-4.72,0-3.98,3.53-6.15,9.89-6.12v-.34c0-1.36-.37-3.81-3.74-3.81-1.53,0-3.13.48-4.28,1.22l-.68-1.97c1.36-.88,3.33-1.46,5.4-1.46,5.03,0,6.25,3.43,6.25,6.73v6.15c0,1.43.07,2.82.27,3.94h-2.72ZM730.9,132.46c-3.26-.07-6.97.51-6.97,3.7,0,1.94,1.29,2.85,2.82,2.85,2.14,0,3.5-1.36,3.98-2.75.1-.31.17-.65.17-.95v-2.85Z"/>
        <path fill="#4D5152" d="M742.08,119.68v4.72h4.28v2.28h-4.28v8.87c0,2.04.58,3.19,2.24,3.19.78,0,1.36-.1,1.73-.2l.14,2.24c-.58.24-1.49.41-2.65.41-1.39,0-2.51-.44-3.23-1.26-.85-.88-1.16-2.34-1.16-4.28v-8.97h-2.55v-2.28h2.55v-3.94l2.92-.78Z"/>
        <path fill="#4D5152" d="M751.19,133.17c.07,4.04,2.65,5.71,5.64,5.71,2.14,0,3.43-.37,4.55-.85l.51,2.14c-1.05.48-2.85,1.02-5.47,1.02-5.06,0-8.09-3.33-8.09-8.29s2.92-8.87,7.71-8.87c5.37,0,6.8,4.72,6.8,7.75,0,.61-.07,1.09-.1,1.39h-11.55ZM759.95,131.03c.03-1.9-.78-4.86-4.15-4.86-3.02,0-4.35,2.79-4.59,4.86h8.73Z"/>
        <path fill="#4D5152" d="M766.14,137.79c.88.58,2.45,1.19,3.94,1.19,2.17,0,3.19-1.09,3.19-2.45,0-1.43-.85-2.21-3.06-3.02-2.96-1.05-4.35-2.68-4.35-4.65,0-2.65,2.14-4.82,5.67-4.82,1.66,0,3.13.48,4.04,1.02l-.75,2.17c-.65-.41-1.83-.95-3.36-.95-1.77,0-2.75,1.02-2.75,2.24,0,1.36.99,1.97,3.13,2.79,2.85,1.09,4.31,2.51,4.31,4.96,0,2.89-2.24,4.93-6.15,4.93-1.8,0-3.47-.44-4.62-1.12l.75-2.28Z"/>
        <path fill="#4D5152" d="M687.51,119.82c.03,1.02-.71,1.83-1.9,1.83-1.05,0-1.8-.82-1.8-1.83s.78-1.87,1.87-1.87,1.83.82,1.83,1.87ZM684.18,140.89v-16.44h2.99v16.44h-2.99Z"/>
      </g>
    </g>
  </g>
</svg>